<mxfile host="app.diagrams.net" modified="2023-06-22T06:42:42.460Z" agent="Mozilla/5.0 (Windows NT 10.0; Win64; x64) AppleWebKit/537.36 (KHTML, like Gecko) Chrome/114.0.0.0 Safari/537.36" etag="mMjFHu1ArCMuaQqlr_SU" version="21.5.0" type="github">
  <diagram id="C5RBs43oDa-KdzZeNtuy" name="Page-1">
    <mxGraphModel dx="1857" dy="932" grid="1" gridSize="10" guides="1" tooltips="1" connect="1" arrows="1" fold="1" page="1" pageScale="1" pageWidth="827" pageHeight="1169" math="0" shadow="0">
      <root>
        <mxCell id="WIyWlLk6GJQsqaUBKTNV-0" />
        <mxCell id="WIyWlLk6GJQsqaUBKTNV-1" parent="WIyWlLk6GJQsqaUBKTNV-0" />
        <mxCell id="bBa0pSg91hH1IUtt1Wy1-30" style="edgeStyle=orthogonalEdgeStyle;rounded=0;orthogonalLoop=1;jettySize=auto;html=1;entryX=0.5;entryY=0;entryDx=0;entryDy=0;" parent="WIyWlLk6GJQsqaUBKTNV-1" source="zkfFHV4jXpPFQw0GAbJ--0" target="0i5cV93Fo1JxYbAB2r_D-63" edge="1">
          <mxGeometry relative="1" as="geometry" />
        </mxCell>
        <mxCell id="zkfFHV4jXpPFQw0GAbJ--0" value="LCD" style="swimlane;fontStyle=2;align=center;verticalAlign=top;childLayout=stackLayout;horizontal=1;startSize=26;horizontalStack=0;resizeParent=1;resizeLast=0;collapsible=1;marginBottom=0;rounded=0;shadow=0;strokeWidth=1;" parent="WIyWlLk6GJQsqaUBKTNV-1" vertex="1">
          <mxGeometry x="330" y="1200" width="310" height="320" as="geometry">
            <mxRectangle x="230" y="140" width="160" height="26" as="alternateBounds" />
          </mxGeometry>
        </mxCell>
        <mxCell id="zkfFHV4jXpPFQw0GAbJ--1" value="xLcd: Lcd&#xa;" style="text;align=left;verticalAlign=top;spacingLeft=4;spacingRight=4;overflow=hidden;rotatable=0;points=[[0,0.5],[1,0.5]];portConstraint=eastwest;" parent="zkfFHV4jXpPFQw0GAbJ--0" vertex="1">
          <mxGeometry y="26" width="310" height="26" as="geometry" />
        </mxCell>
        <mxCell id="zkfFHV4jXpPFQw0GAbJ--2" value="cBackLight: char" style="text;align=left;verticalAlign=top;spacingLeft=4;spacingRight=4;overflow=hidden;rotatable=0;points=[[0,0.5],[1,0.5]];portConstraint=eastwest;rounded=0;shadow=0;html=0;" parent="zkfFHV4jXpPFQw0GAbJ--0" vertex="1">
          <mxGeometry y="52" width="310" height="26" as="geometry" />
        </mxCell>
        <mxCell id="2O0lbyeupgAcVJC7sNoG-7" value="xActualScreen: screen" style="text;align=left;verticalAlign=top;spacingLeft=4;spacingRight=4;overflow=hidden;rotatable=0;points=[[0,0.5],[1,0.5]];portConstraint=eastwest;rounded=0;shadow=0;html=0;" parent="zkfFHV4jXpPFQw0GAbJ--0" vertex="1">
          <mxGeometry y="78" width="310" height="26" as="geometry" />
        </mxCell>
        <mxCell id="zkfFHV4jXpPFQw0GAbJ--4" value="" style="line;html=1;strokeWidth=1;align=left;verticalAlign=middle;spacingTop=-1;spacingLeft=3;spacingRight=3;rotatable=0;labelPosition=right;points=[];portConstraint=eastwest;" parent="zkfFHV4jXpPFQw0GAbJ--0" vertex="1">
          <mxGeometry y="104" width="310" height="8" as="geometry" />
        </mxCell>
        <mxCell id="zkfFHV4jXpPFQw0GAbJ--5" value="+vLcdInitLcd(i2c Handler *hi2c, char cAdress): void" style="text;align=left;verticalAlign=top;spacingLeft=4;spacingRight=4;overflow=hidden;rotatable=0;points=[[0,0.5],[1,0.5]];portConstraint=eastwest;" parent="zkfFHV4jXpPFQw0GAbJ--0" vertex="1">
          <mxGeometry y="112" width="310" height="26" as="geometry" />
        </mxCell>
        <mxCell id="BaVjH6o6p_pFR1Oq_3Zt-0" value="+vLcdWriteData(unsigned char ucData): void" style="text;align=left;verticalAlign=top;spacingLeft=4;spacingRight=4;overflow=hidden;rotatable=0;points=[[0,0.5],[1,0.5]];portConstraint=eastwest;" parent="zkfFHV4jXpPFQw0GAbJ--0" vertex="1">
          <mxGeometry y="138" width="310" height="26" as="geometry" />
        </mxCell>
        <mxCell id="BaVjH6o6p_pFR1Oq_3Zt-1" value="+vLcdSendCommand(unsigned char ucCmd): void" style="text;align=left;verticalAlign=top;spacingLeft=4;spacingRight=4;overflow=hidden;rotatable=0;points=[[0,0.5],[1,0.5]];portConstraint=eastwest;" parent="zkfFHV4jXpPFQw0GAbJ--0" vertex="1">
          <mxGeometry y="164" width="310" height="26" as="geometry" />
        </mxCell>
        <mxCell id="BaVjH6o6p_pFR1Oq_3Zt-2" value="+vLcdSetCurosr(u char ucLine, u char ucColumn): void" style="text;align=left;verticalAlign=top;spacingLeft=4;spacingRight=4;overflow=hidden;rotatable=0;points=[[0,0.5],[1,0.5]];portConstraint=eastwest;" parent="zkfFHV4jXpPFQw0GAbJ--0" vertex="1">
          <mxGeometry y="190" width="310" height="26" as="geometry" />
        </mxCell>
        <mxCell id="BaVjH6o6p_pFR1Oq_3Zt-3" value="+vLcdWriteString(const char* cBuffer): void" style="text;align=left;verticalAlign=top;spacingLeft=4;spacingRight=4;overflow=hidden;rotatable=0;points=[[0,0.5],[1,0.5]];portConstraint=eastwest;" parent="zkfFHV4jXpPFQw0GAbJ--0" vertex="1">
          <mxGeometry y="216" width="310" height="26" as="geometry" />
        </mxCell>
        <mxCell id="2O0lbyeupgAcVJC7sNoG-2" value="+vLcdBackLightOn(void):void" style="text;align=left;verticalAlign=top;spacingLeft=4;spacingRight=4;overflow=hidden;rotatable=0;points=[[0,0.5],[1,0.5]];portConstraint=eastwest;" parent="zkfFHV4jXpPFQw0GAbJ--0" vertex="1">
          <mxGeometry y="242" width="310" height="26" as="geometry" />
        </mxCell>
        <mxCell id="2O0lbyeupgAcVJC7sNoG-3" value="+vLcdBackLightOff(void):void" style="text;align=left;verticalAlign=top;spacingLeft=4;spacingRight=4;overflow=hidden;rotatable=0;points=[[0,0.5],[1,0.5]];portConstraint=eastwest;" parent="zkfFHV4jXpPFQw0GAbJ--0" vertex="1">
          <mxGeometry y="268" width="310" height="26" as="geometry" />
        </mxCell>
        <mxCell id="2O0lbyeupgAcVJC7sNoG-4" value="+vLcdUpdateScreen(screens screen):void" style="text;align=left;verticalAlign=top;spacingLeft=4;spacingRight=4;overflow=hidden;rotatable=0;points=[[0,0.5],[1,0.5]];portConstraint=eastwest;" parent="zkfFHV4jXpPFQw0GAbJ--0" vertex="1">
          <mxGeometry y="294" width="310" height="26" as="geometry" />
        </mxCell>
        <mxCell id="0i5cV93Fo1JxYbAB2r_D-0" value="Buttons" style="swimlane;fontStyle=2;align=center;verticalAlign=top;childLayout=stackLayout;horizontal=1;startSize=26;horizontalStack=0;resizeParent=1;resizeLast=0;collapsible=1;marginBottom=0;rounded=0;shadow=0;strokeWidth=1;" parent="WIyWlLk6GJQsqaUBKTNV-1" vertex="1">
          <mxGeometry x="40" y="1050" width="310" height="90" as="geometry">
            <mxRectangle x="230" y="140" width="160" height="26" as="alternateBounds" />
          </mxGeometry>
        </mxCell>
        <mxCell id="0i5cV93Fo1JxYbAB2r_D-4" value="" style="line;html=1;strokeWidth=1;align=left;verticalAlign=middle;spacingTop=-1;spacingLeft=3;spacingRight=3;rotatable=0;labelPosition=right;points=[];portConstraint=eastwest;" parent="0i5cV93Fo1JxYbAB2r_D-0" vertex="1">
          <mxGeometry y="26" width="310" height="8" as="geometry" />
        </mxCell>
        <mxCell id="0i5cV93Fo1JxYbAB2r_D-5" value="+vButtonsInit(void): void" style="text;align=left;verticalAlign=top;spacingLeft=4;spacingRight=4;overflow=hidden;rotatable=0;points=[[0,0.5],[1,0.5]];portConstraint=eastwest;" parent="0i5cV93Fo1JxYbAB2r_D-0" vertex="1">
          <mxGeometry y="34" width="310" height="26" as="geometry" />
        </mxCell>
        <mxCell id="0i5cV93Fo1JxYbAB2r_D-6" value="+xButtonsReadStatus(buttons xButton): pinState" style="text;align=left;verticalAlign=top;spacingLeft=4;spacingRight=4;overflow=hidden;rotatable=0;points=[[0,0.5],[1,0.5]];portConstraint=eastwest;" parent="0i5cV93Fo1JxYbAB2r_D-0" vertex="1">
          <mxGeometry y="60" width="310" height="26" as="geometry" />
        </mxCell>
        <mxCell id="bBa0pSg91hH1IUtt1Wy1-35" style="edgeStyle=orthogonalEdgeStyle;rounded=0;orthogonalLoop=1;jettySize=auto;html=1;entryX=0.5;entryY=0;entryDx=0;entryDy=0;" parent="WIyWlLk6GJQsqaUBKTNV-1" source="0i5cV93Fo1JxYbAB2r_D-13" target="zkfFHV4jXpPFQw0GAbJ--0" edge="1">
          <mxGeometry relative="1" as="geometry">
            <Array as="points">
              <mxPoint x="395" y="970" />
              <mxPoint x="485" y="970" />
            </Array>
          </mxGeometry>
        </mxCell>
        <mxCell id="bBa0pSg91hH1IUtt1Wy1-37" style="edgeStyle=orthogonalEdgeStyle;rounded=0;orthogonalLoop=1;jettySize=auto;html=1;entryX=0.5;entryY=0;entryDx=0;entryDy=0;exitX=0.5;exitY=1;exitDx=0;exitDy=0;" parent="WIyWlLk6GJQsqaUBKTNV-1" source="0i5cV93Fo1JxYbAB2r_D-13" target="0i5cV93Fo1JxYbAB2r_D-0" edge="1">
          <mxGeometry relative="1" as="geometry">
            <Array as="points">
              <mxPoint x="395" y="970" />
              <mxPoint x="195" y="970" />
            </Array>
          </mxGeometry>
        </mxCell>
        <mxCell id="0i5cV93Fo1JxYbAB2r_D-13" value="buttonsEvents" style="swimlane;fontStyle=2;align=center;verticalAlign=top;childLayout=stackLayout;horizontal=1;startSize=26;horizontalStack=0;resizeParent=1;resizeLast=0;collapsible=1;marginBottom=0;rounded=0;shadow=0;strokeWidth=1;" parent="WIyWlLk6GJQsqaUBKTNV-1" vertex="1">
          <mxGeometry x="200" y="470" width="390" height="392" as="geometry">
            <mxRectangle x="230" y="140" width="160" height="26" as="alternateBounds" />
          </mxGeometry>
        </mxCell>
        <mxCell id="0i5cV93Fo1JxYbAB2r_D-14" value="pTimDebouncer: TIM_Handler pointer" style="text;align=left;verticalAlign=top;spacingLeft=4;spacingRight=4;overflow=hidden;rotatable=0;points=[[0,0.5],[1,0.5]];portConstraint=eastwest;" parent="0i5cV93Fo1JxYbAB2r_D-13" vertex="1">
          <mxGeometry y="26" width="390" height="26" as="geometry" />
        </mxCell>
        <mxCell id="0i5cV93Fo1JxYbAB2r_D-15" value="pTimPressedTime: TIM_Handler pointer" style="text;align=left;verticalAlign=top;spacingLeft=4;spacingRight=4;overflow=hidden;rotatable=0;points=[[0,0.5],[1,0.5]];portConstraint=eastwest;rounded=0;shadow=0;html=0;" parent="0i5cV93Fo1JxYbAB2r_D-13" vertex="1">
          <mxGeometry y="52" width="390" height="26" as="geometry" />
        </mxCell>
        <mxCell id="0i5cV93Fo1JxYbAB2r_D-16" value="cFlagDebouncer[5] : string" style="text;align=left;verticalAlign=top;spacingLeft=4;spacingRight=4;overflow=hidden;rotatable=0;points=[[0,0.5],[1,0.5]];portConstraint=eastwest;rounded=0;shadow=0;html=0;" parent="0i5cV93Fo1JxYbAB2r_D-13" vertex="1">
          <mxGeometry y="78" width="390" height="26" as="geometry" />
        </mxCell>
        <mxCell id="0i5cV93Fo1JxYbAB2r_D-26" value="uiCounterButtons[5]: unsigned integer vector" style="text;align=left;verticalAlign=top;spacingLeft=4;spacingRight=4;overflow=hidden;rotatable=0;points=[[0,0.5],[1,0.5]];portConstraint=eastwest;rounded=0;shadow=0;html=0;" parent="0i5cV93Fo1JxYbAB2r_D-13" vertex="1">
          <mxGeometry y="104" width="390" height="26" as="geometry" />
        </mxCell>
        <mxCell id="0i5cV93Fo1JxYbAB2r_D-27" value="cFlagLongPressTimer: char (flag)" style="text;align=left;verticalAlign=top;spacingLeft=4;spacingRight=4;overflow=hidden;rotatable=0;points=[[0,0.5],[1,0.5]];portConstraint=eastwest;rounded=0;shadow=0;html=0;" parent="0i5cV93Fo1JxYbAB2r_D-13" vertex="1">
          <mxGeometry y="130" width="390" height="26" as="geometry" />
        </mxCell>
        <mxCell id="0i5cV93Fo1JxYbAB2r_D-17" value="" style="line;html=1;strokeWidth=1;align=left;verticalAlign=middle;spacingTop=-1;spacingLeft=3;spacingRight=3;rotatable=0;labelPosition=right;points=[];portConstraint=eastwest;" parent="0i5cV93Fo1JxYbAB2r_D-13" vertex="1">
          <mxGeometry y="156" width="390" height="8" as="geometry" />
        </mxCell>
        <mxCell id="0i5cV93Fo1JxYbAB2r_D-18" value="+vButtonsEventsInit(TIM_Handler* pTimDebouncer,TIM_Handler* &#xa;pTimPressedTime): void" style="text;align=left;verticalAlign=top;spacingLeft=4;spacingRight=4;overflow=hidden;rotatable=0;points=[[0,0.5],[1,0.5]];portConstraint=eastwest;" parent="0i5cV93Fo1JxYbAB2r_D-13" vertex="1">
          <mxGeometry y="164" width="390" height="36" as="geometry" />
        </mxCell>
        <mxCell id="0i5cV93Fo1JxYbAB2r_D-19" value="+HAL_GPIO_EXTI_Callback(unsigned integer GPIO_Pin): void" style="text;align=left;verticalAlign=top;spacingLeft=4;spacingRight=4;overflow=hidden;rotatable=0;points=[[0,0.5],[1,0.5]];portConstraint=eastwest;" parent="0i5cV93Fo1JxYbAB2r_D-13" vertex="1">
          <mxGeometry y="200" width="390" height="26" as="geometry" />
        </mxCell>
        <mxCell id="0i5cV93Fo1JxYbAB2r_D-20" value="+vButtonsEventsDebouncingPeriodElapsedCallback(void) : void" style="text;align=left;verticalAlign=top;spacingLeft=4;spacingRight=4;overflow=hidden;rotatable=0;points=[[0,0.5],[1,0.5]];portConstraint=eastwest;" parent="0i5cV93Fo1JxYbAB2r_D-13" vertex="1">
          <mxGeometry y="226" width="390" height="26" as="geometry" />
        </mxCell>
        <mxCell id="0i5cV93Fo1JxYbAB2r_D-21" value="+vButtonsEventsLongPressPeriodElapsedCallback(void): void" style="text;align=left;verticalAlign=top;spacingLeft=4;spacingRight=4;overflow=hidden;rotatable=0;points=[[0,0.5],[1,0.5]];portConstraint=eastwest;" parent="0i5cV93Fo1JxYbAB2r_D-13" vertex="1">
          <mxGeometry y="252" width="390" height="26" as="geometry" />
        </mxCell>
        <mxCell id="0i5cV93Fo1JxYbAB2r_D-22" value="+vButtonsEventChangeScreen(buttons xBt) : void" style="text;align=left;verticalAlign=top;spacingLeft=4;spacingRight=4;overflow=hidden;rotatable=0;points=[[0,0.5],[1,0.5]];portConstraint=eastwest;" parent="0i5cV93Fo1JxYbAB2r_D-13" vertex="1">
          <mxGeometry y="278" width="390" height="26" as="geometry" />
        </mxCell>
        <mxCell id="0i5cV93Fo1JxYbAB2r_D-23" value="+(weak)vButtonsEventCallbackPressedEvent(buttons xBt): void" style="text;align=left;verticalAlign=top;spacingLeft=4;spacingRight=4;overflow=hidden;rotatable=0;points=[[0,0.5],[1,0.5]];portConstraint=eastwest;" parent="0i5cV93Fo1JxYbAB2r_D-13" vertex="1">
          <mxGeometry y="304" width="390" height="26" as="geometry" />
        </mxCell>
        <mxCell id="0i5cV93Fo1JxYbAB2r_D-24" value="+(weak)vButtonsEventCallbackReleasedEvent(buttons xBt): void" style="text;align=left;verticalAlign=top;spacingLeft=4;spacingRight=4;overflow=hidden;rotatable=0;points=[[0,0.5],[1,0.5]];portConstraint=eastwest;" parent="0i5cV93Fo1JxYbAB2r_D-13" vertex="1">
          <mxGeometry y="330" width="390" height="26" as="geometry" />
        </mxCell>
        <mxCell id="0i5cV93Fo1JxYbAB2r_D-25" value="+(weak)vButtonsEventCallback500msPressedEvent(buttons xBt): void" style="text;align=left;verticalAlign=top;spacingLeft=4;spacingRight=4;overflow=hidden;rotatable=0;points=[[0,0.5],[1,0.5]];portConstraint=eastwest;" parent="0i5cV93Fo1JxYbAB2r_D-13" vertex="1">
          <mxGeometry y="356" width="390" height="26" as="geometry" />
        </mxCell>
        <mxCell id="0i5cV93Fo1JxYbAB2r_D-28" value="HeaterAndCooler" style="swimlane;fontStyle=2;align=center;verticalAlign=top;childLayout=stackLayout;horizontal=1;startSize=26;horizontalStack=0;resizeParent=1;resizeLast=0;collapsible=1;marginBottom=0;rounded=0;shadow=0;strokeWidth=1;" parent="WIyWlLk6GJQsqaUBKTNV-1" vertex="1">
          <mxGeometry x="850" y="1730" width="360" height="320" as="geometry">
            <mxRectangle x="230" y="140" width="160" height="26" as="alternateBounds" />
          </mxGeometry>
        </mxCell>
        <mxCell id="0i5cV93Fo1JxYbAB2r_D-30" value="fHeaterPWMDutyCycle: float" style="text;align=left;verticalAlign=top;spacingLeft=4;spacingRight=4;overflow=hidden;rotatable=0;points=[[0,0.5],[1,0.5]];portConstraint=eastwest;rounded=0;shadow=0;html=0;" parent="0i5cV93Fo1JxYbAB2r_D-28" vertex="1">
          <mxGeometry y="26" width="360" height="26" as="geometry" />
        </mxCell>
        <mxCell id="0i5cV93Fo1JxYbAB2r_D-31" value="fCoolerPWMDutyCycle: float" style="text;align=left;verticalAlign=top;spacingLeft=4;spacingRight=4;overflow=hidden;rotatable=0;points=[[0,0.5],[1,0.5]];portConstraint=eastwest;rounded=0;shadow=0;html=0;" parent="0i5cV93Fo1JxYbAB2r_D-28" vertex="1">
          <mxGeometry y="52" width="360" height="26" as="geometry" />
        </mxCell>
        <mxCell id="0i5cV93Fo1JxYbAB2r_D-41" value="pPWMHeater: TIM_Handler pointer" style="text;align=left;verticalAlign=top;spacingLeft=4;spacingRight=4;overflow=hidden;rotatable=0;points=[[0,0.5],[1,0.5]];portConstraint=eastwest;rounded=0;shadow=0;html=0;" parent="0i5cV93Fo1JxYbAB2r_D-28" vertex="1">
          <mxGeometry y="78" width="360" height="26" as="geometry" />
        </mxCell>
        <mxCell id="0i5cV93Fo1JxYbAB2r_D-42" value="pPWMCooler: TIM_Handler pointer" style="text;align=left;verticalAlign=top;spacingLeft=4;spacingRight=4;overflow=hidden;rotatable=0;points=[[0,0.5],[1,0.5]];portConstraint=eastwest;rounded=0;shadow=0;html=0;" parent="0i5cV93Fo1JxYbAB2r_D-28" vertex="1">
          <mxGeometry y="104" width="360" height="26" as="geometry" />
        </mxCell>
        <mxCell id="0i5cV93Fo1JxYbAB2r_D-32" value="" style="line;html=1;strokeWidth=1;align=left;verticalAlign=middle;spacingTop=-1;spacingLeft=3;spacingRight=3;rotatable=0;labelPosition=right;points=[];portConstraint=eastwest;" parent="0i5cV93Fo1JxYbAB2r_D-28" vertex="1">
          <mxGeometry y="130" width="360" height="8" as="geometry" />
        </mxCell>
        <mxCell id="0i5cV93Fo1JxYbAB2r_D-33" value="+vHeaterAndCoolerCoolerInit(TIM_Handle *pWMCooler): void" style="text;align=left;verticalAlign=top;spacingLeft=4;spacingRight=4;overflow=hidden;rotatable=0;points=[[0,0.5],[1,0.5]];portConstraint=eastwest;" parent="0i5cV93Fo1JxYbAB2r_D-28" vertex="1">
          <mxGeometry y="138" width="360" height="26" as="geometry" />
        </mxCell>
        <mxCell id="0i5cV93Fo1JxYbAB2r_D-34" value="+vHeaterAndCoolerHeaterInit(TIM_Handler *pWMHeater): void&#xa;" style="text;align=left;verticalAlign=top;spacingLeft=4;spacingRight=4;overflow=hidden;rotatable=0;points=[[0,0.5],[1,0.5]];portConstraint=eastwest;" parent="0i5cV93Fo1JxYbAB2r_D-28" vertex="1">
          <mxGeometry y="164" width="360" height="26" as="geometry" />
        </mxCell>
        <mxCell id="0i5cV93Fo1JxYbAB2r_D-35" value="+vHeaterAndCoolerCoolerStart(void): void" style="text;align=left;verticalAlign=top;spacingLeft=4;spacingRight=4;overflow=hidden;rotatable=0;points=[[0,0.5],[1,0.5]];portConstraint=eastwest;" parent="0i5cV93Fo1JxYbAB2r_D-28" vertex="1">
          <mxGeometry y="190" width="360" height="26" as="geometry" />
        </mxCell>
        <mxCell id="0i5cV93Fo1JxYbAB2r_D-36" value="+vHeaterAndCoolerCoolerStop(void): void" style="text;align=left;verticalAlign=top;spacingLeft=4;spacingRight=4;overflow=hidden;rotatable=0;points=[[0,0.5],[1,0.5]];portConstraint=eastwest;" parent="0i5cV93Fo1JxYbAB2r_D-28" vertex="1">
          <mxGeometry y="216" width="360" height="26" as="geometry" />
        </mxCell>
        <mxCell id="0i5cV93Fo1JxYbAB2r_D-37" value="+vHeaterAndCoolerHeaterStop(void): void" style="text;align=left;verticalAlign=top;spacingLeft=4;spacingRight=4;overflow=hidden;rotatable=0;points=[[0,0.5],[1,0.5]];portConstraint=eastwest;" parent="0i5cV93Fo1JxYbAB2r_D-28" vertex="1">
          <mxGeometry y="242" width="360" height="26" as="geometry" />
        </mxCell>
        <mxCell id="0i5cV93Fo1JxYbAB2r_D-38" value="+vHeaterAndCoolerCoolerfanPWMDuty(float fCoolerDuty)void" style="text;align=left;verticalAlign=top;spacingLeft=4;spacingRight=4;overflow=hidden;rotatable=0;points=[[0,0.5],[1,0.5]];portConstraint=eastwest;" parent="0i5cV93Fo1JxYbAB2r_D-28" vertex="1">
          <mxGeometry y="268" width="360" height="26" as="geometry" />
        </mxCell>
        <mxCell id="0i5cV93Fo1JxYbAB2r_D-39" value="+vHeaterAndCoolerHeaterPWMDuty(float fHeaterDuty):void" style="text;align=left;verticalAlign=top;spacingLeft=4;spacingRight=4;overflow=hidden;rotatable=0;points=[[0,0.5],[1,0.5]];portConstraint=eastwest;" parent="0i5cV93Fo1JxYbAB2r_D-28" vertex="1">
          <mxGeometry y="294" width="360" height="26" as="geometry" />
        </mxCell>
        <mxCell id="0i5cV93Fo1JxYbAB2r_D-63" value="Tachometer" style="swimlane;fontStyle=2;align=center;verticalAlign=top;childLayout=stackLayout;horizontal=1;startSize=26;horizontalStack=0;resizeParent=1;resizeLast=0;collapsible=1;marginBottom=0;rounded=0;shadow=0;strokeWidth=1;" parent="WIyWlLk6GJQsqaUBKTNV-1" vertex="1">
          <mxGeometry x="300" y="1730" width="370" height="200" as="geometry">
            <mxRectangle x="230" y="140" width="160" height="26" as="alternateBounds" />
          </mxGeometry>
        </mxCell>
        <mxCell id="0i5cV93Fo1JxYbAB2r_D-64" value="pTachometerWindow: TIM_Handler pointer" style="text;align=left;verticalAlign=top;spacingLeft=4;spacingRight=4;overflow=hidden;rotatable=0;points=[[0,0.5],[1,0.5]];portConstraint=eastwest;" parent="0i5cV93Fo1JxYbAB2r_D-63" vertex="1">
          <mxGeometry y="26" width="370" height="26" as="geometry" />
        </mxCell>
        <mxCell id="0i5cV93Fo1JxYbAB2r_D-65" value="pTachometer: TIM_Handler pointer" style="text;align=left;verticalAlign=top;spacingLeft=4;spacingRight=4;overflow=hidden;rotatable=0;points=[[0,0.5],[1,0.5]];portConstraint=eastwest;rounded=0;shadow=0;html=0;" parent="0i5cV93Fo1JxYbAB2r_D-63" vertex="1">
          <mxGeometry y="52" width="370" height="26" as="geometry" />
        </mxCell>
        <mxCell id="0i5cV93Fo1JxYbAB2r_D-66" value="usCoolerSpeed: unsigned short int" style="text;align=left;verticalAlign=top;spacingLeft=4;spacingRight=4;overflow=hidden;rotatable=0;points=[[0,0.5],[1,0.5]];portConstraint=eastwest;rounded=0;shadow=0;html=0;" parent="0i5cV93Fo1JxYbAB2r_D-63" vertex="1">
          <mxGeometry y="78" width="370" height="26" as="geometry" />
        </mxCell>
        <mxCell id="0i5cV93Fo1JxYbAB2r_D-76" value="uiPeriodTachometer: unsigned int" style="text;align=left;verticalAlign=top;spacingLeft=4;spacingRight=4;overflow=hidden;rotatable=0;points=[[0,0.5],[1,0.5]];portConstraint=eastwest;rounded=0;shadow=0;html=0;" parent="0i5cV93Fo1JxYbAB2r_D-63" vertex="1">
          <mxGeometry y="104" width="370" height="26" as="geometry" />
        </mxCell>
        <mxCell id="0i5cV93Fo1JxYbAB2r_D-67" value="" style="line;html=1;strokeWidth=1;align=left;verticalAlign=middle;spacingTop=-1;spacingLeft=3;spacingRight=3;rotatable=0;labelPosition=right;points=[];portConstraint=eastwest;" parent="0i5cV93Fo1JxYbAB2r_D-63" vertex="1">
          <mxGeometry y="130" width="370" height="8" as="geometry" />
        </mxCell>
        <mxCell id="0i5cV93Fo1JxYbAB2r_D-68" value="+vTachometerInit(TIM_Handler *htim, unsigned int uiPeriod):void" style="text;align=left;verticalAlign=top;spacingLeft=4;spacingRight=4;overflow=hidden;rotatable=0;points=[[0,0.5],[1,0.5]];portConstraint=eastwest;" parent="0i5cV93Fo1JxYbAB2r_D-63" vertex="1">
          <mxGeometry y="138" width="370" height="26" as="geometry" />
        </mxCell>
        <mxCell id="0i5cV93Fo1JxYbAB2r_D-69" value="+vTachometerUpdate(void): void" style="text;align=left;verticalAlign=top;spacingLeft=4;spacingRight=4;overflow=hidden;rotatable=0;points=[[0,0.5],[1,0.5]];portConstraint=eastwest;" parent="0i5cV93Fo1JxYbAB2r_D-63" vertex="1">
          <mxGeometry y="164" width="370" height="26" as="geometry" />
        </mxCell>
        <mxCell id="0i5cV93Fo1JxYbAB2r_D-77" value="temperatureSensor" style="swimlane;fontStyle=2;align=center;verticalAlign=top;childLayout=stackLayout;horizontal=1;startSize=26;horizontalStack=0;resizeParent=1;resizeLast=0;collapsible=1;marginBottom=0;rounded=0;shadow=0;strokeWidth=1;" parent="WIyWlLk6GJQsqaUBKTNV-1" vertex="1">
          <mxGeometry x="1260" y="2090" width="290" height="120" as="geometry">
            <mxRectangle x="230" y="140" width="160" height="26" as="alternateBounds" />
          </mxGeometry>
        </mxCell>
        <mxCell id="0i5cV93Fo1JxYbAB2r_D-78" value="usTemperature: unsigned short int" style="text;align=left;verticalAlign=top;spacingLeft=4;spacingRight=4;overflow=hidden;rotatable=0;points=[[0,0.5],[1,0.5]];portConstraint=eastwest;" parent="0i5cV93Fo1JxYbAB2r_D-77" vertex="1">
          <mxGeometry y="26" width="290" height="26" as="geometry" />
        </mxCell>
        <mxCell id="0i5cV93Fo1JxYbAB2r_D-82" value="" style="line;html=1;strokeWidth=1;align=left;verticalAlign=middle;spacingTop=-1;spacingLeft=3;spacingRight=3;rotatable=0;labelPosition=right;points=[];portConstraint=eastwest;" parent="0i5cV93Fo1JxYbAB2r_D-77" vertex="1">
          <mxGeometry y="52" width="290" height="8" as="geometry" />
        </mxCell>
        <mxCell id="0i5cV93Fo1JxYbAB2r_D-83" value="+vTemperatureSensorInit(ADC_Handler *hadc):void" style="text;align=left;verticalAlign=top;spacingLeft=4;spacingRight=4;overflow=hidden;rotatable=0;points=[[0,0.5],[1,0.5]];portConstraint=eastwest;" parent="0i5cV93Fo1JxYbAB2r_D-77" vertex="1">
          <mxGeometry y="60" width="290" height="26" as="geometry" />
        </mxCell>
        <mxCell id="0i5cV93Fo1JxYbAB2r_D-84" value="+fTemperatureSensorGetTemperature(void): float" style="text;align=left;verticalAlign=top;spacingLeft=4;spacingRight=4;overflow=hidden;rotatable=0;points=[[0,0.5],[1,0.5]];portConstraint=eastwest;" parent="0i5cV93Fo1JxYbAB2r_D-77" vertex="1">
          <mxGeometry y="86" width="290" height="26" as="geometry" />
        </mxCell>
        <mxCell id="bBa0pSg91hH1IUtt1Wy1-28" style="edgeStyle=orthogonalEdgeStyle;rounded=0;orthogonalLoop=1;jettySize=auto;html=1;entryX=0.5;entryY=0;entryDx=0;entryDy=0;" parent="WIyWlLk6GJQsqaUBKTNV-1" source="0i5cV93Fo1JxYbAB2r_D-85" target="0i5cV93Fo1JxYbAB2r_D-28" edge="1">
          <mxGeometry relative="1" as="geometry" />
        </mxCell>
        <mxCell id="bBa0pSg91hH1IUtt1Wy1-29" style="edgeStyle=orthogonalEdgeStyle;rounded=0;orthogonalLoop=1;jettySize=auto;html=1;entryX=0.5;entryY=0;entryDx=0;entryDy=0;" parent="WIyWlLk6GJQsqaUBKTNV-1" source="0i5cV93Fo1JxYbAB2r_D-85" target="0i5cV93Fo1JxYbAB2r_D-77" edge="1">
          <mxGeometry relative="1" as="geometry">
            <Array as="points">
              <mxPoint x="1135" y="1640" />
              <mxPoint x="1405" y="1640" />
            </Array>
          </mxGeometry>
        </mxCell>
        <mxCell id="0i5cV93Fo1JxYbAB2r_D-85" value="pid" style="swimlane;fontStyle=2;align=center;verticalAlign=top;childLayout=stackLayout;horizontal=1;startSize=26;horizontalStack=0;resizeParent=1;resizeLast=0;collapsible=1;marginBottom=0;rounded=0;shadow=0;strokeWidth=1;" parent="WIyWlLk6GJQsqaUBKTNV-1" vertex="1">
          <mxGeometry x="880" y="970" width="510" height="578" as="geometry">
            <mxRectangle x="230" y="140" width="160" height="26" as="alternateBounds" />
          </mxGeometry>
        </mxCell>
        <mxCell id="0i5cV93Fo1JxYbAB2r_D-86" value="pidConfig: pid_data_type" style="text;align=left;verticalAlign=top;spacingLeft=4;spacingRight=4;overflow=hidden;rotatable=0;points=[[0,0.5],[1,0.5]];portConstraint=eastwest;" parent="0i5cV93Fo1JxYbAB2r_D-85" vertex="1">
          <mxGeometry y="26" width="510" height="26" as="geometry" />
        </mxCell>
        <mxCell id="0i5cV93Fo1JxYbAB2r_D-87" value="usIntegratorCount: unsigned short" style="text;align=left;verticalAlign=top;spacingLeft=4;spacingRight=4;overflow=hidden;rotatable=0;points=[[0,0.5],[1,0.5]];portConstraint=eastwest;rounded=0;shadow=0;html=0;" parent="0i5cV93Fo1JxYbAB2r_D-85" vertex="1">
          <mxGeometry y="52" width="510" height="26" as="geometry" />
        </mxCell>
        <mxCell id="0i5cV93Fo1JxYbAB2r_D-88" value="fIntegratorBuffer[]: float vector" style="text;align=left;verticalAlign=top;spacingLeft=4;spacingRight=4;overflow=hidden;rotatable=0;points=[[0,0.5],[1,0.5]];portConstraint=eastwest;rounded=0;shadow=0;html=0;" parent="0i5cV93Fo1JxYbAB2r_D-85" vertex="1">
          <mxGeometry y="78" width="510" height="26" as="geometry" />
        </mxCell>
        <mxCell id="0i5cV93Fo1JxYbAB2r_D-89" value="fError : float" style="text;align=left;verticalAlign=top;spacingLeft=4;spacingRight=4;overflow=hidden;rotatable=0;points=[[0,0.5],[1,0.5]];portConstraint=eastwest;rounded=0;shadow=0;html=0;" parent="0i5cV93Fo1JxYbAB2r_D-85" vertex="1">
          <mxGeometry y="104" width="510" height="26" as="geometry" />
        </mxCell>
        <mxCell id="2LTUuvdpXQ_53j733zzJ-0" value="fDifference : float" style="text;align=left;verticalAlign=top;spacingLeft=4;spacingRight=4;overflow=hidden;rotatable=0;points=[[0,0.5],[1,0.5]];portConstraint=eastwest;rounded=0;shadow=0;html=0;" parent="0i5cV93Fo1JxYbAB2r_D-85" vertex="1">
          <mxGeometry y="130" width="510" height="26" as="geometry" />
        </mxCell>
        <mxCell id="2LTUuvdpXQ_53j733zzJ-1" value="fOut : float" style="text;align=left;verticalAlign=top;spacingLeft=4;spacingRight=4;overflow=hidden;rotatable=0;points=[[0,0.5],[1,0.5]];portConstraint=eastwest;rounded=0;shadow=0;html=0;" parent="0i5cV93Fo1JxYbAB2r_D-85" vertex="1">
          <mxGeometry y="156" width="510" height="26" as="geometry" />
        </mxCell>
        <mxCell id="0i5cV93Fo1JxYbAB2r_D-90" value="fSetPointTemperature: float" style="text;align=left;verticalAlign=top;spacingLeft=4;spacingRight=4;overflow=hidden;rotatable=0;points=[[0,0.5],[1,0.5]];portConstraint=eastwest;rounded=0;shadow=0;html=0;" parent="0i5cV93Fo1JxYbAB2r_D-85" vertex="1">
          <mxGeometry y="182" width="510" height="26" as="geometry" />
        </mxCell>
        <mxCell id="0i5cV93Fo1JxYbAB2r_D-91" value="" style="line;html=1;strokeWidth=1;align=left;verticalAlign=middle;spacingTop=-1;spacingLeft=3;spacingRight=3;rotatable=0;labelPosition=right;points=[];portConstraint=eastwest;" parent="0i5cV93Fo1JxYbAB2r_D-85" vertex="1">
          <mxGeometry y="208" width="510" height="8" as="geometry" />
        </mxCell>
        <mxCell id="0i5cV93Fo1JxYbAB2r_D-92" value="+vPidInit(float fKp, float fKi, float fKd, unsigned short usIntegratorSize, float fOutputSaturation)" style="text;align=left;verticalAlign=top;spacingLeft=4;spacingRight=4;overflow=hidden;rotatable=0;points=[[0,0.5],[1,0.5]];portConstraint=eastwest;" parent="0i5cV93Fo1JxYbAB2r_D-85" vertex="1">
          <mxGeometry y="216" width="510" height="24" as="geometry" />
        </mxCell>
        <mxCell id="0i5cV93Fo1JxYbAB2r_D-93" value="+vPidSetKp: float fKp" style="text;align=left;verticalAlign=top;spacingLeft=4;spacingRight=4;overflow=hidden;rotatable=0;points=[[0,0.5],[1,0.5]];portConstraint=eastwest;" parent="0i5cV93Fo1JxYbAB2r_D-85" vertex="1">
          <mxGeometry y="240" width="510" height="26" as="geometry" />
        </mxCell>
        <mxCell id="0i5cV93Fo1JxYbAB2r_D-94" value="+fPidGetKp(void): void" style="text;align=left;verticalAlign=top;spacingLeft=4;spacingRight=4;overflow=hidden;rotatable=0;points=[[0,0.5],[1,0.5]];portConstraint=eastwest;" parent="0i5cV93Fo1JxYbAB2r_D-85" vertex="1">
          <mxGeometry y="266" width="510" height="26" as="geometry" />
        </mxCell>
        <mxCell id="0i5cV93Fo1JxYbAB2r_D-95" value="+vPidSetKi(float fKi): void " style="text;align=left;verticalAlign=top;spacingLeft=4;spacingRight=4;overflow=hidden;rotatable=0;points=[[0,0.5],[1,0.5]];portConstraint=eastwest;" parent="0i5cV93Fo1JxYbAB2r_D-85" vertex="1">
          <mxGeometry y="292" width="510" height="26" as="geometry" />
        </mxCell>
        <mxCell id="0i5cV93Fo1JxYbAB2r_D-96" value="+fPidGetKi(void): float" style="text;align=left;verticalAlign=top;spacingLeft=4;spacingRight=4;overflow=hidden;rotatable=0;points=[[0,0.5],[1,0.5]];portConstraint=eastwest;" parent="0i5cV93Fo1JxYbAB2r_D-85" vertex="1">
          <mxGeometry y="318" width="510" height="26" as="geometry" />
        </mxCell>
        <mxCell id="0i5cV93Fo1JxYbAB2r_D-97" value="+vPidSetKd(float fKd): void" style="text;align=left;verticalAlign=top;spacingLeft=4;spacingRight=4;overflow=hidden;rotatable=0;points=[[0,0.5],[1,0.5]];portConstraint=eastwest;" parent="0i5cV93Fo1JxYbAB2r_D-85" vertex="1">
          <mxGeometry y="344" width="510" height="26" as="geometry" />
        </mxCell>
        <mxCell id="0i5cV93Fo1JxYbAB2r_D-98" value="+fPidGetKd(void): void" style="text;align=left;verticalAlign=top;spacingLeft=4;spacingRight=4;overflow=hidden;rotatable=0;points=[[0,0.5],[1,0.5]];portConstraint=eastwest;" parent="0i5cV93Fo1JxYbAB2r_D-85" vertex="1">
          <mxGeometry y="370" width="510" height="26" as="geometry" />
        </mxCell>
        <mxCell id="0i5cV93Fo1JxYbAB2r_D-99" value="+vPidSetIntegratorWindow (unsigned short usIntSizeMs): void" style="text;align=left;verticalAlign=top;spacingLeft=4;spacingRight=4;overflow=hidden;rotatable=0;points=[[0,0.5],[1,0.5]];portConstraint=eastwest;" parent="0i5cV93Fo1JxYbAB2r_D-85" vertex="1">
          <mxGeometry y="396" width="510" height="26" as="geometry" />
        </mxCell>
        <mxCell id="2LTUuvdpXQ_53j733zzJ-2" value="+usPidGetIntegratorWindow (void): unsigned short" style="text;align=left;verticalAlign=top;spacingLeft=4;spacingRight=4;overflow=hidden;rotatable=0;points=[[0,0.5],[1,0.5]];portConstraint=eastwest;" parent="0i5cV93Fo1JxYbAB2r_D-85" vertex="1">
          <mxGeometry y="422" width="510" height="26" as="geometry" />
        </mxCell>
        <mxCell id="2LTUuvdpXQ_53j733zzJ-3" value="+fPidUpdateData(float fSensorValue, float fReferenceValue): float" style="text;align=left;verticalAlign=top;spacingLeft=4;spacingRight=4;overflow=hidden;rotatable=0;points=[[0,0.5],[1,0.5]];portConstraint=eastwest;" parent="0i5cV93Fo1JxYbAB2r_D-85" vertex="1">
          <mxGeometry y="448" width="510" height="26" as="geometry" />
        </mxCell>
        <mxCell id="2LTUuvdpXQ_53j733zzJ-4" value="+fPIDGetSetPointTemperature(void): float" style="text;align=left;verticalAlign=top;spacingLeft=4;spacingRight=4;overflow=hidden;rotatable=0;points=[[0,0.5],[1,0.5]];portConstraint=eastwest;" parent="0i5cV93Fo1JxYbAB2r_D-85" vertex="1">
          <mxGeometry y="474" width="510" height="26" as="geometry" />
        </mxCell>
        <mxCell id="2LTUuvdpXQ_53j733zzJ-5" value="+vPIDSetSetPointTemperature(float fNewSetPointTemperature): void" style="text;align=left;verticalAlign=top;spacingLeft=4;spacingRight=4;overflow=hidden;rotatable=0;points=[[0,0.5],[1,0.5]];portConstraint=eastwest;" parent="0i5cV93Fo1JxYbAB2r_D-85" vertex="1">
          <mxGeometry y="500" width="510" height="26" as="geometry" />
        </mxCell>
        <mxCell id="2LTUuvdpXQ_53j733zzJ-6" value="+vPIDActuatorSetValue(float fActuatorValue): void" style="text;align=left;verticalAlign=top;spacingLeft=4;spacingRight=4;overflow=hidden;rotatable=0;points=[[0,0.5],[1,0.5]];portConstraint=eastwest;" parent="0i5cV93Fo1JxYbAB2r_D-85" vertex="1">
          <mxGeometry y="526" width="510" height="26" as="geometry" />
        </mxCell>
        <mxCell id="2LTUuvdpXQ_53j733zzJ-7" value="+vPIDPeriodicControlTask(void): void" style="text;align=left;verticalAlign=top;spacingLeft=4;spacingRight=4;overflow=hidden;rotatable=0;points=[[0,0.5],[1,0.5]];portConstraint=eastwest;" parent="0i5cV93Fo1JxYbAB2r_D-85" vertex="1">
          <mxGeometry y="552" width="510" height="26" as="geometry" />
        </mxCell>
        <mxCell id="bBa0pSg91hH1IUtt1Wy1-38" style="edgeStyle=orthogonalEdgeStyle;rounded=0;orthogonalLoop=1;jettySize=auto;html=1;entryX=0.5;entryY=0;entryDx=0;entryDy=0;" parent="WIyWlLk6GJQsqaUBKTNV-1" source="bBa0pSg91hH1IUtt1Wy1-4" target="0i5cV93Fo1JxYbAB2r_D-85" edge="1">
          <mxGeometry relative="1" as="geometry" />
        </mxCell>
        <mxCell id="bBa0pSg91hH1IUtt1Wy1-4" value="communicationStateMachine" style="swimlane;fontStyle=2;align=center;verticalAlign=top;childLayout=stackLayout;horizontal=1;startSize=26;horizontalStack=0;resizeParent=1;resizeLast=0;collapsible=1;marginBottom=0;rounded=0;shadow=0;strokeWidth=1;" parent="WIyWlLk6GJQsqaUBKTNV-1" vertex="1">
          <mxGeometry x="905" y="470" width="460" height="440" as="geometry">
            <mxRectangle x="230" y="140" width="160" height="26" as="alternateBounds" />
          </mxGeometry>
        </mxCell>
        <mxCell id="bBa0pSg91hH1IUtt1Wy1-5" value="ucMachineState: unsigned char&#xa;" style="text;align=left;verticalAlign=top;spacingLeft=4;spacingRight=4;overflow=hidden;rotatable=0;points=[[0,0.5],[1,0.5]];portConstraint=eastwest;" parent="bBa0pSg91hH1IUtt1Wy1-4" vertex="1">
          <mxGeometry y="26" width="460" height="26" as="geometry" />
        </mxCell>
        <mxCell id="bBa0pSg91hH1IUtt1Wy1-6" value="ucValueCount: unsigned char" style="text;align=left;verticalAlign=top;spacingLeft=4;spacingRight=4;overflow=hidden;rotatable=0;points=[[0,0.5],[1,0.5]];portConstraint=eastwest;rounded=0;shadow=0;html=0;" parent="bBa0pSg91hH1IUtt1Wy1-4" vertex="1">
          <mxGeometry y="52" width="460" height="26" as="geometry" />
        </mxCell>
        <mxCell id="bBa0pSg91hH1IUtt1Wy1-7" value="sData[5]: char" style="text;align=left;verticalAlign=top;spacingLeft=4;spacingRight=4;overflow=hidden;rotatable=0;points=[[0,0.5],[1,0.5]];portConstraint=eastwest;rounded=0;shadow=0;html=0;" parent="bBa0pSg91hH1IUtt1Wy1-4" vertex="1">
          <mxGeometry y="78" width="460" height="26" as="geometry" />
        </mxCell>
        <mxCell id="bBa0pSg91hH1IUtt1Wy1-17" value="sData2[4]: char&#xa;" style="text;align=left;verticalAlign=top;spacingLeft=4;spacingRight=4;overflow=hidden;rotatable=0;points=[[0,0.5],[1,0.5]];portConstraint=eastwest;rounded=0;shadow=0;html=0;" parent="bBa0pSg91hH1IUtt1Wy1-4" vertex="1">
          <mxGeometry y="104" width="460" height="26" as="geometry" />
        </mxCell>
        <mxCell id="bBa0pSg91hH1IUtt1Wy1-18" value="cStr[7]: char" style="text;align=left;verticalAlign=top;spacingLeft=4;spacingRight=4;overflow=hidden;rotatable=0;points=[[0,0.5],[1,0.5]];portConstraint=eastwest;rounded=0;shadow=0;html=0;" parent="bBa0pSg91hH1IUtt1Wy1-4" vertex="1">
          <mxGeometry y="130" width="460" height="26" as="geometry" />
        </mxCell>
        <mxCell id="bBa0pSg91hH1IUtt1Wy1-19" value="ucData: unsigned char" style="text;align=left;verticalAlign=top;spacingLeft=4;spacingRight=4;overflow=hidden;rotatable=0;points=[[0,0.5],[1,0.5]];portConstraint=eastwest;rounded=0;shadow=0;html=0;" parent="bBa0pSg91hH1IUtt1Wy1-4" vertex="1">
          <mxGeometry y="156" width="460" height="26" as="geometry" />
        </mxCell>
        <mxCell id="bBa0pSg91hH1IUtt1Wy1-20" value="ucParam: static unsigned char" style="text;align=left;verticalAlign=top;spacingLeft=4;spacingRight=4;overflow=hidden;rotatable=0;points=[[0,0.5],[1,0.5]];portConstraint=eastwest;rounded=0;shadow=0;html=0;" parent="bBa0pSg91hH1IUtt1Wy1-4" vertex="1">
          <mxGeometry y="182" width="460" height="26" as="geometry" />
        </mxCell>
        <mxCell id="bBa0pSg91hH1IUtt1Wy1-21" value="cValue[]: static char" style="text;align=left;verticalAlign=top;spacingLeft=4;spacingRight=4;overflow=hidden;rotatable=0;points=[[0,0.5],[1,0.5]];portConstraint=eastwest;rounded=0;shadow=0;html=0;" parent="bBa0pSg91hH1IUtt1Wy1-4" vertex="1">
          <mxGeometry y="208" width="460" height="26" as="geometry" />
        </mxCell>
        <mxCell id="bBa0pSg91hH1IUtt1Wy1-22" value="sMessage[]: char&#xa;" style="text;align=left;verticalAlign=top;spacingLeft=4;spacingRight=4;overflow=hidden;rotatable=0;points=[[0,0.5],[1,0.5]];portConstraint=eastwest;rounded=0;shadow=0;html=0;" parent="bBa0pSg91hH1IUtt1Wy1-4" vertex="1">
          <mxGeometry y="234" width="460" height="26" as="geometry" />
        </mxCell>
        <mxCell id="bBa0pSg91hH1IUtt1Wy1-23" value="sAllMessage[]: char" style="text;align=left;verticalAlign=top;spacingLeft=4;spacingRight=4;overflow=hidden;rotatable=0;points=[[0,0.5],[1,0.5]];portConstraint=eastwest;rounded=0;shadow=0;html=0;" parent="bBa0pSg91hH1IUtt1Wy1-4" vertex="1">
          <mxGeometry y="260" width="460" height="26" as="geometry" />
        </mxCell>
        <mxCell id="bBa0pSg91hH1IUtt1Wy1-8" value="" style="line;html=1;strokeWidth=1;align=left;verticalAlign=middle;spacingTop=-1;spacingLeft=3;spacingRight=3;rotatable=0;labelPosition=right;points=[];portConstraint=eastwest;" parent="bBa0pSg91hH1IUtt1Wy1-4" vertex="1">
          <mxGeometry y="286" width="460" height="24" as="geometry" />
        </mxCell>
        <mxCell id="bBa0pSg91hH1IUtt1Wy1-9" value="+vCommunicationStateMachineProcessStateMachine(unsigned char ucByte): void" style="text;align=left;verticalAlign=top;spacingLeft=4;spacingRight=4;overflow=hidden;rotatable=0;points=[[0,0.5],[1,0.5]];portConstraint=eastwest;" parent="bBa0pSg91hH1IUtt1Wy1-4" vertex="1">
          <mxGeometry y="310" width="460" height="30" as="geometry" />
        </mxCell>
        <mxCell id="bBa0pSg91hH1IUtt1Wy1-25" value="+vFtoa(float fNum, unsigned char ucType): char*" style="text;align=left;verticalAlign=top;spacingLeft=4;spacingRight=4;overflow=hidden;rotatable=0;points=[[0,0.5],[1,0.5]];portConstraint=eastwest;" parent="bBa0pSg91hH1IUtt1Wy1-4" vertex="1">
          <mxGeometry y="340" width="460" height="30" as="geometry" />
        </mxCell>
        <mxCell id="bBa0pSg91hH1IUtt1Wy1-26" value="+vReturnParam(unsigned char ucParamReturn): void" style="text;align=left;verticalAlign=top;spacingLeft=4;spacingRight=4;overflow=hidden;rotatable=0;points=[[0,0.5],[1,0.5]];portConstraint=eastwest;" parent="bBa0pSg91hH1IUtt1Wy1-4" vertex="1">
          <mxGeometry y="370" width="460" height="30" as="geometry" />
        </mxCell>
        <mxCell id="bBa0pSg91hH1IUtt1Wy1-27" value="+vSetParam(unsigned char ucParamSet, char* cValue): void" style="text;align=left;verticalAlign=top;spacingLeft=4;spacingRight=4;overflow=hidden;rotatable=0;points=[[0,0.5],[1,0.5]];portConstraint=eastwest;" parent="bBa0pSg91hH1IUtt1Wy1-4" vertex="1">
          <mxGeometry y="400" width="460" height="30" as="geometry" />
        </mxCell>
        <mxCell id="bBa0pSg91hH1IUtt1Wy1-31" style="edgeStyle=orthogonalEdgeStyle;rounded=0;orthogonalLoop=1;jettySize=auto;html=1;exitX=1;exitY=0.5;exitDx=0;exitDy=0;entryX=0;entryY=0.5;entryDx=0;entryDy=0;" parent="WIyWlLk6GJQsqaUBKTNV-1" source="BaVjH6o6p_pFR1Oq_3Zt-1" target="0i5cV93Fo1JxYbAB2r_D-94" edge="1">
          <mxGeometry relative="1" as="geometry" />
        </mxCell>
        <mxCell id="bBa0pSg91hH1IUtt1Wy1-32" style="edgeStyle=orthogonalEdgeStyle;rounded=0;orthogonalLoop=1;jettySize=auto;html=1;entryX=0;entryY=0.5;entryDx=0;entryDy=0;" parent="WIyWlLk6GJQsqaUBKTNV-1" source="BaVjH6o6p_pFR1Oq_3Zt-1" target="0i5cV93Fo1JxYbAB2r_D-34" edge="1">
          <mxGeometry relative="1" as="geometry">
            <mxPoint x="660" y="1377" as="targetPoint" />
            <Array as="points">
              <mxPoint x="760" y="1377" />
              <mxPoint x="760" y="1907" />
            </Array>
          </mxGeometry>
        </mxCell>
        <mxCell id="bBa0pSg91hH1IUtt1Wy1-34" style="edgeStyle=orthogonalEdgeStyle;rounded=0;orthogonalLoop=1;jettySize=auto;html=1;exitX=1;exitY=0.5;exitDx=0;exitDy=0;entryX=0;entryY=0.5;entryDx=0;entryDy=0;" parent="WIyWlLk6GJQsqaUBKTNV-1" source="BaVjH6o6p_pFR1Oq_3Zt-1" target="0i5cV93Fo1JxYbAB2r_D-83" edge="1">
          <mxGeometry relative="1" as="geometry">
            <mxPoint x="1150" y="2230" as="targetPoint" />
            <Array as="points">
              <mxPoint x="730" y="1377" />
              <mxPoint x="730" y="2163" />
            </Array>
          </mxGeometry>
        </mxCell>
        <mxCell id="bBa0pSg91hH1IUtt1Wy1-39" style="edgeStyle=orthogonalEdgeStyle;rounded=0;orthogonalLoop=1;jettySize=auto;html=1;entryX=0.91;entryY=0;entryDx=0;entryDy=0;entryPerimeter=0;" parent="WIyWlLk6GJQsqaUBKTNV-1" source="bBa0pSg91hH1IUtt1Wy1-18" target="0i5cV93Fo1JxYbAB2r_D-77" edge="1">
          <mxGeometry relative="1" as="geometry" />
        </mxCell>
        <mxCell id="bBa0pSg91hH1IUtt1Wy1-41" style="edgeStyle=orthogonalEdgeStyle;rounded=0;orthogonalLoop=1;jettySize=auto;html=1;entryX=0;entryY=0.5;entryDx=0;entryDy=0;" parent="WIyWlLk6GJQsqaUBKTNV-1" source="bBa0pSg91hH1IUtt1Wy1-20" target="0i5cV93Fo1JxYbAB2r_D-31" edge="1">
          <mxGeometry relative="1" as="geometry">
            <Array as="points">
              <mxPoint x="830" y="665" />
              <mxPoint x="830" y="1795" />
            </Array>
          </mxGeometry>
        </mxCell>
        <mxCell id="X-Gvdqp447JF7FZNPuhg-15" style="edgeStyle=orthogonalEdgeStyle;rounded=0;orthogonalLoop=1;jettySize=auto;html=1;exitX=0.5;exitY=1;exitDx=0;exitDy=0;entryX=0.5;entryY=0;entryDx=0;entryDy=0;" edge="1" parent="WIyWlLk6GJQsqaUBKTNV-1" source="X-Gvdqp447JF7FZNPuhg-0" target="0i5cV93Fo1JxYbAB2r_D-13">
          <mxGeometry relative="1" as="geometry" />
        </mxCell>
        <mxCell id="X-Gvdqp447JF7FZNPuhg-16" style="edgeStyle=orthogonalEdgeStyle;rounded=0;orthogonalLoop=1;jettySize=auto;html=1;entryX=0.5;entryY=0;entryDx=0;entryDy=0;" edge="1" parent="WIyWlLk6GJQsqaUBKTNV-1" source="X-Gvdqp447JF7FZNPuhg-0" target="bBa0pSg91hH1IUtt1Wy1-4">
          <mxGeometry relative="1" as="geometry" />
        </mxCell>
        <mxCell id="X-Gvdqp447JF7FZNPuhg-19" style="edgeStyle=orthogonalEdgeStyle;rounded=0;orthogonalLoop=1;jettySize=auto;html=1;entryX=0.75;entryY=0;entryDx=0;entryDy=0;" edge="1" parent="WIyWlLk6GJQsqaUBKTNV-1" source="X-Gvdqp447JF7FZNPuhg-0" target="zkfFHV4jXpPFQw0GAbJ--0">
          <mxGeometry relative="1" as="geometry">
            <Array as="points">
              <mxPoint x="745" y="765" />
              <mxPoint x="690" y="765" />
              <mxPoint x="690" y="1130" />
              <mxPoint x="563" y="1130" />
            </Array>
          </mxGeometry>
        </mxCell>
        <mxCell id="X-Gvdqp447JF7FZNPuhg-0" value="main" style="swimlane;fontStyle=2;align=center;verticalAlign=top;childLayout=stackLayout;horizontal=1;startSize=26;horizontalStack=0;resizeParent=1;resizeLast=0;collapsible=1;marginBottom=0;rounded=0;shadow=0;strokeWidth=1;" vertex="1" parent="WIyWlLk6GJQsqaUBKTNV-1">
          <mxGeometry x="550" y="210" width="390" height="120" as="geometry">
            <mxRectangle x="230" y="140" width="160" height="26" as="alternateBounds" />
          </mxGeometry>
        </mxCell>
        <mxCell id="X-Gvdqp447JF7FZNPuhg-1" value="uLCDAdress: unsigned char" style="text;align=left;verticalAlign=top;spacingLeft=4;spacingRight=4;overflow=hidden;rotatable=0;points=[[0,0.5],[1,0.5]];portConstraint=eastwest;" vertex="1" parent="X-Gvdqp447JF7FZNPuhg-0">
          <mxGeometry y="26" width="390" height="26" as="geometry" />
        </mxCell>
        <mxCell id="X-Gvdqp447JF7FZNPuhg-2" value="fCurrentTemperature: float" style="text;align=left;verticalAlign=top;spacingLeft=4;spacingRight=4;overflow=hidden;rotatable=0;points=[[0,0.5],[1,0.5]];portConstraint=eastwest;rounded=0;shadow=0;html=0;" vertex="1" parent="X-Gvdqp447JF7FZNPuhg-0">
          <mxGeometry y="52" width="390" height="26" as="geometry" />
        </mxCell>
        <mxCell id="X-Gvdqp447JF7FZNPuhg-6" value="" style="line;html=1;strokeWidth=1;align=left;verticalAlign=middle;spacingTop=-1;spacingLeft=3;spacingRight=3;rotatable=0;labelPosition=right;points=[];portConstraint=eastwest;" vertex="1" parent="X-Gvdqp447JF7FZNPuhg-0">
          <mxGeometry y="78" width="390" height="8" as="geometry" />
        </mxCell>
        <mxCell id="X-Gvdqp447JF7FZNPuhg-14" value="HAL_TIM_PeriodElapsedCallback(TIM_HandleTypeDef *htim): void" style="text;align=left;verticalAlign=top;spacingLeft=4;spacingRight=4;overflow=hidden;rotatable=0;points=[[0,0.5],[1,0.5]];portConstraint=eastwest;" vertex="1" parent="X-Gvdqp447JF7FZNPuhg-0">
          <mxGeometry y="86" width="390" height="26" as="geometry" />
        </mxCell>
        <mxCell id="X-Gvdqp447JF7FZNPuhg-17" style="edgeStyle=orthogonalEdgeStyle;rounded=0;orthogonalLoop=1;jettySize=auto;html=1;entryX=0.5;entryY=0;entryDx=0;entryDy=0;" edge="1" parent="WIyWlLk6GJQsqaUBKTNV-1" source="X-Gvdqp447JF7FZNPuhg-14" target="0i5cV93Fo1JxYbAB2r_D-0">
          <mxGeometry relative="1" as="geometry">
            <Array as="points">
              <mxPoint x="120" y="309" />
              <mxPoint x="120" y="1050" />
            </Array>
          </mxGeometry>
        </mxCell>
        <mxCell id="X-Gvdqp447JF7FZNPuhg-18" style="edgeStyle=orthogonalEdgeStyle;rounded=0;orthogonalLoop=1;jettySize=auto;html=1;entryX=1;entryY=0.5;entryDx=0;entryDy=0;" edge="1" parent="WIyWlLk6GJQsqaUBKTNV-1" source="X-Gvdqp447JF7FZNPuhg-2" target="0i5cV93Fo1JxYbAB2r_D-90">
          <mxGeometry relative="1" as="geometry" />
        </mxCell>
        <mxCell id="X-Gvdqp447JF7FZNPuhg-20" style="edgeStyle=orthogonalEdgeStyle;rounded=0;orthogonalLoop=1;jettySize=auto;html=1;entryX=1;entryY=0.5;entryDx=0;entryDy=0;" edge="1" parent="WIyWlLk6GJQsqaUBKTNV-1" target="0i5cV93Fo1JxYbAB2r_D-66">
          <mxGeometry relative="1" as="geometry">
            <mxPoint x="750" y="330" as="sourcePoint" />
            <Array as="points">
              <mxPoint x="745" y="1009" />
              <mxPoint x="710" y="1009" />
              <mxPoint x="710" y="1820" />
              <mxPoint x="670" y="1820" />
            </Array>
          </mxGeometry>
        </mxCell>
        <mxCell id="X-Gvdqp447JF7FZNPuhg-21" style="edgeStyle=orthogonalEdgeStyle;rounded=0;orthogonalLoop=1;jettySize=auto;html=1;entryX=0.717;entryY=-0.003;entryDx=0;entryDy=0;entryPerimeter=0;" edge="1" parent="WIyWlLk6GJQsqaUBKTNV-1" source="X-Gvdqp447JF7FZNPuhg-2" target="0i5cV93Fo1JxYbAB2r_D-77">
          <mxGeometry relative="1" as="geometry" />
        </mxCell>
        <mxCell id="X-Gvdqp447JF7FZNPuhg-22" style="edgeStyle=orthogonalEdgeStyle;rounded=0;orthogonalLoop=1;jettySize=auto;html=1;entryX=1;entryY=0.5;entryDx=0;entryDy=0;" edge="1" parent="WIyWlLk6GJQsqaUBKTNV-1" source="X-Gvdqp447JF7FZNPuhg-2" target="0i5cV93Fo1JxYbAB2r_D-34">
          <mxGeometry relative="1" as="geometry">
            <Array as="points">
              <mxPoint x="1610" y="275" />
              <mxPoint x="1610" y="1907" />
            </Array>
          </mxGeometry>
        </mxCell>
      </root>
    </mxGraphModel>
  </diagram>
</mxfile>
